<?xml version="1.0" encoding="utf-8"?>
<!-- Generator: Adobe Illustrator 22.1.0, SVG Export Plug-In . SVG Version: 6.00 Build 0)  -->
<!DOCTYPE svg PUBLIC "-//W3C//DTD SVG 1.1//EN" "http://www.w3.org/Graphics/SVG/1.1/DTD/svg11.dtd">
<svg version="1.1" id="Capa_1" xmlns="http://www.w3.org/2000/svg" xmlns:xlink="http://www.w3.org/1999/xlink" x="0px" y="0px"
	 viewBox="0 0 512 512" style="enable-background:new 0 0 512 512;" xml:space="preserve">
<style type="text/css">
	.st0{fill:#E74B4B;}
</style>
<g>
	<g>
		<path class="st0" d="M256,512C130.8,512,29,410.2,29,285c0-73.1,35.5-142.2,95.1-184.8c16.1-11.5,38.5-7.8,50,8.3
			c11.5,16.1,7.8,38.5-8.3,50C125,187.7,100.7,235,100.7,285c0,85.7,69.7,155.3,155.3,155.3S411.3,370.6,411.3,285
			c0-50-24.3-97.3-65.1-126.4c-16.1-11.5-19.8-33.9-8.3-50c11.5-16.1,33.9-19.8,50-8.3C447.5,142.8,483,211.9,483,285
			C483,410.2,381.2,512,256,512z"/>
	</g>
	<g>
		<path class="st0" d="M256,274.8c-19.8,0-35.8-16-35.8-35.9V35.8C220.2,16,236.2,0,256,0s35.8,16,35.8,35.8V239
			C291.8,258.8,275.8,274.8,256,274.8z"/>
	</g>
</g>
</svg>
