<svg id="Layer_1" data-name="Layer 1" xmlns="http://www.w3.org/2000/svg" viewBox="0 0 474.04 476.33"><defs><style>.cls-1{fill:none;stroke:#fff;stroke-miterlimit:10;stroke-width:15.21px;}.cls-2{fill:#fff;}</style></defs><title>logoWHITE</title><polygon class="cls-1" points="169.84 9.66 8.44 262.66 73.84 441.46 285.94 468.56 466.44 406.06 466.44 144.86 169.84 9.66"/><polygon class="cls-1" points="104.34 129.56 289.74 68.46 466.44 144.86 466.44 341.16 285.44 456.76 52.04 369.46 104.34 129.56"/><path class="cls-2" d="M203.8,205.4V332.5H187.4V205.4Z" transform="translate(-12.86 -11.94)"/><path class="cls-2" d="M209.5,338.2H181.7V199.7h27.8Zm-16.4-11.4h5V211.2h-5Z" transform="translate(-12.86 -11.94)"/><path class="cls-2" d="M252.7,205.4v53.2h61.5V205.4h16.6V332.5H314.2V272.9H252.7v59.6H236.3V205.4Z" transform="translate(-12.86 -11.94)"/><path class="cls-2" d="M336.4,338.2h-28V278.6H258.3v59.6H230.5V199.7h27.8v53.2h50.1V199.7h28Zm-16.6-11.4H325V211.2h-5.2v53.2H246.9V211.2h-5V326.9h5V267.3h72.9Z" transform="translate(-12.86 -11.94)"/><path class="cls-2" d="M358.4,322.7c0-7,4.7-11.9,11.3-11.9s11.1,4.9,11.1,11.9c0,6.8-4.3,11.9-11.3,11.9C362.9,334.6,358.4,329.5,358.4,322.7Z" transform="translate(-12.86 -11.94)"/><path class="cls-2" d="M369.5,340.3c-9.6,0-16.8-7.6-16.8-17.6s7.3-17.6,17-17.6,16.8,7.4,16.8,17.6S379.4,340.3,369.5,340.3Zm.2-23.8c-3.5,0-5.6,2.4-5.6,6.2,0,2.8,1.4,6.2,5.4,6.2,5.1,0,5.6-4.3,5.6-6.2C375.1,318.9,373.1,316.5,369.7,316.5Z" transform="translate(-12.86 -11.94)"/></svg>