<?xml version="1.0" encoding="utf-8"?>
<!-- Generator: Adobe Illustrator 22.0.1, SVG Export Plug-In . SVG Version: 6.00 Build 0)  -->
<!DOCTYPE svg PUBLIC "-//W3C//DTD SVG 1.1//EN" "http://www.w3.org/Graphics/SVG/1.1/DTD/svg11.dtd">
<svg version="1.1" id="Layer_1" xmlns="http://www.w3.org/2000/svg" xmlns:xlink="http://www.w3.org/1999/xlink" x="0px" y="0px"
	 viewBox="0 0 500 500" style="enable-background:new 0 0 500 500;" xml:space="preserve">
<style type="text/css">
	.st0{fill:none;stroke:#000000;stroke-width:15.2129;stroke-miterlimit:10;}
</style>
<polygon class="st0" points="182.7,21.6 21.3,274.6 86.7,453.4 298.8,480.5 479.3,418 479.3,156.8 "/>
<polygon class="st0" points="117.2,141.5 302.6,80.4 479.3,156.8 479.3,353.1 298.3,468.7 64.9,381.4 "/>
<g>
	<g>
		<path d="M203.8,205.4v127.1h-16.4V205.4H203.8z"/>
		<path d="M209.5,338.2h-27.8V199.7h27.8V338.2z M193.1,326.8h5V211.2h-5V326.8z"/>
	</g>
	<g>
		<path d="M252.7,205.4v53.2h61.5v-53.2h16.6v127.1h-16.6v-59.6h-61.5v59.6h-16.4V205.4H252.7z"/>
		<path d="M336.4,338.2h-28v-59.6h-50.1v59.6h-27.8V199.7h27.8v53.2h50.1v-53.2h28V338.2z M319.8,326.8h5.2V211.2h-5.2v53.2h-72.9
			v-53.2h-5v115.7h5v-59.6h72.9V326.8z"/>
	</g>
	<g>
		<path d="M358.4,322.7c0-7,4.7-11.9,11.3-11.9s11.1,4.9,11.1,11.9c0,6.8-4.3,11.9-11.3,11.9C362.9,334.6,358.4,329.5,358.4,322.7z"
			/>
		<path d="M369.5,340.3c-9.6,0-16.8-7.6-16.8-17.6s7.3-17.6,17-17.6c9.8,0,16.8,7.4,16.8,17.6S379.4,340.3,369.5,340.3z
			 M369.7,316.5c-3.5,0-5.6,2.4-5.6,6.2c0,2.8,1.4,6.2,5.4,6.2c5.1,0,5.6-4.3,5.6-6.2C375.1,318.9,373.1,316.5,369.7,316.5z"/>
	</g>
</g>
</svg>
